HIERARCHY
ROOT root
{
	OFFSET	0.000000	0.000000	0.000000
	CHANNELS 6 Xposition Yposition Zposition Zrotation Yrotation Xrotation
	JOINT lhipjoint
	{
		OFFSET	0.000000	0.000000	0.000000
		CHANNELS 3 Zrotation Yrotation Xrotation
		JOINT lfemur
		{
			OFFSET	1.175839	-1.635849	1.003610
			CHANNELS 3 Zrotation Yrotation Xrotation
			JOINT ltibia
			{
				OFFSET	2.238893	-6.151313	0.000000
				CHANNELS 3 Zrotation Yrotation Xrotation
				JOINT lfoot
				{
					OFFSET	2.651612	-7.285250	0.000000
					CHANNELS 3 Zrotation Yrotation Xrotation
					JOINT ltoes
					{
						OFFSET	0.248981	-0.684068	1.572347
						CHANNELS 3 Zrotation Yrotation Xrotation
						End Site
						{
							OFFSET	0.000000	-0.000000	0.858383
						}
					}
				}
			}
		}
	}
	JOINT rhipjoint
	{
		OFFSET	0.000000	0.000000	0.000000
		CHANNELS 3 Zrotation Yrotation Xrotation
		JOINT rfemur
		{
			OFFSET	-1.155919	-1.635851	1.003612
			CHANNELS 3 Zrotation Yrotation Xrotation
			JOINT rtibia
			{
				OFFSET	-2.340706	-6.431041	0.000000
				CHANNELS 3 Zrotation Yrotation Xrotation
				JOINT rfoot
				{
					OFFSET	-2.591129	-7.119075	0.000000
					CHANNELS 3 Zrotation Yrotation Xrotation
					JOINT rtoes
					{
						OFFSET	-0.178671	-0.490894	1.709806
						CHANNELS 3 Zrotation Yrotation Xrotation
						End Site
						{
							OFFSET	-0.000000	-0.000000	0.898614
						}
					}
				}
			}
		}
	}
	JOINT lowerback
	{
		OFFSET	0.000000	0.000000	0.000000
		CHANNELS 3 Zrotation Yrotation Xrotation
		JOINT upperback
		{
			OFFSET	-0.022549	1.907644	-0.166052
			CHANNELS 3 Zrotation Yrotation Xrotation
			JOINT thorax
			{
				OFFSET	-0.003648	1.921502	-0.048982
				CHANNELS 3 Zrotation Yrotation Xrotation
				JOINT lowerneck
				{
					OFFSET	0.006489	1.931145	0.029434
					CHANNELS 3 Zrotation Yrotation Xrotation
					JOINT upperneck
					{
						OFFSET	0.003717	1.591703	0.086942
						CHANNELS 3 Zrotation Yrotation Xrotation
						JOINT head
						{
							OFFSET	0.125579	1.586429	-0.080777
							CHANNELS 3 Zrotation Yrotation Xrotation
							End Site
							{
								OFFSET	0.042114	1.608349	-0.038029
							}
						}
					}
				}
				JOINT lclavicle
				{
					OFFSET	0.006489	1.931145	0.029434
					CHANNELS 3 Zrotation Yrotation Xrotation
					JOINT lhumerus
					{
						OFFSET	3.693240	0.963159	0.190769
						CHANNELS 3 Zrotation Yrotation Xrotation
						JOINT lradius
						{
							OFFSET	4.877960	-0.000000	-0.000000
							CHANNELS 3 Zrotation Yrotation Xrotation
							JOINT lwrist
							{
								OFFSET	3.231690	-0.000000	0.000000
								CHANNELS 3 Zrotation Yrotation Xrotation
								JOINT lhand
								{
									OFFSET	1.615840	-0.000000	0.000000
									CHANNELS 3 Zrotation Yrotation Xrotation
									JOINT lfingers
									{
										OFFSET	0.731324	-0.000000	0.000000
										CHANNELS 3 Zrotation Yrotation Xrotation
										End Site
										{
											OFFSET	0.589612	-0.000000	0.000000
										}
									}
								}
								JOINT lthumb
								{
									OFFSET	1.615840	-0.000000	0.000000
									CHANNELS 3 Zrotation Yrotation Xrotation
									End Site
									{
										OFFSET	0.598615	-0.000000	0.598615
									}
								}
							}
						}
					}
				}
				JOINT rclavicle
				{
					OFFSET	0.006489	1.931145	0.029434
					CHANNELS 3 Zrotation Yrotation Xrotation
					JOINT rhumerus
					{
						OFFSET	-3.661028	0.751452	0.082811
						CHANNELS 3 Zrotation Yrotation Xrotation
						JOINT rradius
						{
							OFFSET	-4.914300	-0.000000	0.000000
							CHANNELS 3 Zrotation Yrotation Xrotation
							JOINT rwrist
							{
								OFFSET	-3.290930	-0.000000	0.000000
								CHANNELS 3 Zrotation Yrotation Xrotation
								JOINT rhand
								{
									OFFSET	-1.645460	-0.000000	0.000000
									CHANNELS 3 Zrotation Yrotation Xrotation
									JOINT rfingers
									{
										OFFSET	-0.545120	-0.000000	0.000000
										CHANNELS 3 Zrotation Yrotation Xrotation
										End Site
										{
											OFFSET	-0.439490	-0.000000	0.000000
										}
									}
								}
								JOINT rthumb
								{
									OFFSET	-1.645460	-0.000000	0.000000
									CHANNELS 3 Zrotation Yrotation Xrotation
									End Site
									{
										OFFSET	-0.446200	-0.000000	0.446200
									}
								}
							}
						}
					}
				}
			}
		}
	}
}
MOTION
Frames:	9
Frame Time:	0.008333
	17.745001	16.050600	1.244010	106.018051	-84.629364	-101.712013	0.000000	0.000000	0.000000	-16.360546	-7.072042	-20.968060	4.573071	12.886260	38.944164	2.615710	4.849085	-32.556686	2.188790	-9.248721	-26.576487	0.000000	0.000000	0.000000	-0.594126	8.881124	-20.592617	-4.947973	-13.324968	40.597446	-2.245657	-5.220997	-30.543036	-0.176622	-2.707127	7.464406	-8.467561	0.006106	-4.137211	-2.103890	0.581247	2.716030	2.593670	0.001754	5.112780	-4.460760	1.377720	-2.763000	0.696683	1.813340	16.287899	1.041020	0.533359	5.308340	-4.460760	-0.000000	0.000000	-78.017311	-6.783380	27.054853	27.781912	-38.914684	-9.986393	0.000000	0.000000	10.650397	51.396023	-29.926197	-31.999317	-7.125019	0.000000	0.000000	11.141790	-12.010395	-13.444220	-4.460760	-0.000000	0.000000	85.253387	0.222330	33.719795	-27.634024	38.777138	-9.893635	0.000000	-0.000002	-14.013496	-19.809591	-38.391888	12.609711	7.125019	0.000000	0.000000	21.602177	-68.956444	-12.618191
	17.741600	16.054300	1.225700	111.706024	-85.556351	-106.925049	0.000000	0.000000	0.000000	-15.076525	-7.293203	-21.600977	4.670139	13.002414	39.377502	2.645009	5.023394	-32.805626	2.190109	-9.251320	-26.584682	0.000000	0.000000	0.000000	0.677527	10.045181	-20.666433	-4.846358	-13.208655	40.154640	-2.126111	-5.694739	-30.044817	-0.184844	-2.769062	7.636451	-7.250249	0.073126	-4.598820	-1.874100	0.628925	2.468520	2.165240	0.076345	5.109220	-4.698319	1.409880	-2.914240	0.995237	1.840090	16.449600	1.177300	0.548253	5.377851	-4.698320	-0.000000	0.000000	-77.849030	-6.634051	27.252663	28.083130	-39.192650	-10.176178	-0.000000	-0.000003	10.242691	51.164543	-29.928974	-31.788691	-7.125019	0.000000	0.000000	11.019248	-11.886974	-13.273071	-4.698320	-0.000000	0.000000	85.297333	0.273460	33.553471	-27.637318	38.780201	-9.895697	0.000000	-0.000002	-12.414394	-29.150469	-35.169628	17.810228	7.125019	0.000000	0.000000	5.861000	-68.793983	-3.348328
	17.735500	16.055500	1.203490	121.357918	-86.724632	-116.251884	0.000000	0.000000	0.000000	-13.430643	-7.293094	-22.127151	4.758062	13.106050	39.766747	2.664512	4.971636	-32.892185	2.202642	-9.275993	-26.662531	0.000000	0.000000	0.000000	2.371397	11.306595	-20.477095	-4.760871	-13.109335	39.779137	-1.997585	-6.586778	-29.719315	-0.192264	-2.823802	7.788593	-5.692579	0.215674	-4.964800	-1.601410	0.736043	2.287010	1.594240	0.187151	5.121780	-4.778180	1.374150	-2.812660	1.106550	1.779500	16.302402	1.220220	0.525526	5.314469	-4.778181	0.000000	0.000000	-77.660202	-6.654356	27.596886	28.229244	-39.326424	-10.268645	-0.000000	-0.000003	10.085293	51.222431	-29.732059	-31.688103	-7.125019	0.000000	0.000000	11.111053	-11.686688	-13.357507	-4.778181	0.000000	0.000000	85.401573	0.270181	33.197887	-27.750940	38.885937	-9.966949	-0.000000	0.000002	-10.897502	-37.466370	-31.669210	21.918299	7.125019	0.000000	0.000000	-8.311368	-67.662277	4.541289
	17.725901	16.061501	1.176930	137.825958	-87.572548	-132.405029	0.000000	0.000000	0.000000	-11.968025	-7.420374	-22.485901	4.832481	13.192625	40.093876	2.714859	4.886564	-33.137115	2.173378	-9.218241	-26.480423	0.000000	0.000000	0.000000	3.880193	12.457937	-20.137348	-4.687973	-13.023551	39.456688	-1.977700	-7.879580	-30.354868	-0.144975	-2.453744	6.761417	-4.388180	0.355192	-5.621079	-1.337710	0.865418	2.233440	1.158300	0.289570	5.438910	-4.718759	1.329350	-2.687670	1.077170	1.717560	16.044901	1.195270	0.504402	5.215939	-4.718760	0.000000	0.000000	-77.569824	-6.858066	27.670927	28.314495	-39.404160	-10.322716	0.000000	0.000000	10.372295	51.304638	-29.637413	-31.689169	-7.125019	0.000000	0.000000	11.183779	-11.620008	-13.437921	-4.718760	0.000000	0.000000	85.517982	0.475738	32.244270	-27.764650	38.898663	-9.975556	0.000000	-0.000002	-7.493626	-42.187328	-30.035896	24.402025	7.125019	0.000000	0.000000	-16.038713	-67.298561	8.697068
	17.720200	16.060699	1.148480	152.763062	-87.960968	-147.154160	0.000000	0.000000	0.000000	-11.037305	-7.504700	-22.735641	4.887146	13.255567	40.332836	2.736514	4.852571	-33.243122	2.171060	-9.213651	-26.465948	0.000000	0.000000	0.000000	4.856308	13.433421	-19.814552	-4.636548	-12.962422	39.227966	-1.937630	-8.867233	-30.725643	-0.117898	-2.213672	6.096533	-3.566710	0.452621	-5.983271	-1.193830	0.944684	2.147590	0.860252	0.356252	5.558510	-4.731719	1.315850	-2.640370	1.132970	1.693070	15.932801	1.212440	0.498750	5.173059	-4.731719	-0.000000	-0.000000	-77.470314	-6.922076	27.792305	28.469488	-39.544865	-10.421248	0.000000	0.000000	10.488398	51.315178	-29.569016	-31.645035	-7.125019	0.000000	0.000000	11.210572	-11.545005	-13.459870	-4.731719	-0.000000	-0.000000	85.621948	0.632755	31.431097	-27.679718	38.819702	-9.922270	0.000000	0.000000	-4.383428	-44.169224	-29.457333	25.534594	7.125019	0.000000	0.000000	-19.305305	-67.256538	10.499372
	17.715900	16.058300	1.116360	162.522964	-88.119865	-156.826950	0.000000	0.000000	0.000000	-10.479024	-7.581856	-22.832869	4.917164	13.289899	40.463589	2.745502	4.843410	-33.289299	2.177701	-9.226810	-26.507423	0.000000	0.000000	0.000000	5.477353	14.230070	-19.456457	-4.609063	-12.929543	39.105286	-1.921627	-9.791673	-31.239100	-0.087205	-1.904692	5.242334	-3.100800	0.525733	-6.234049	-1.129160	1.012810	2.096220	0.676717	0.405433	5.650130	-4.686569	1.304840	-2.628560	1.123620	1.678710	15.847298	1.200720	0.496715	5.145400	-4.686570	-0.000000	0.000000	-77.404167	-6.988192	27.857986	28.619535	-39.680359	-10.516917	0.000000	0.000000	10.676299	51.319168	-29.535938	-31.622618	-7.125019	0.000000	0.000000	11.222897	-11.508050	-13.469568	-4.686570	-0.000000	0.000000	85.724312	0.828956	30.614876	-27.530348	38.680260	-9.828773	0.000000	-0.000002	-1.306515	-44.182220	-29.711637	25.719419	7.125019	0.000000	0.000000	-19.368971	-67.551376	10.664376
	17.713499	16.054899	1.081540	165.705902	-88.200165	-159.998856	0.000000	0.000000	0.000000	-10.205855	-7.658018	-22.821383	4.927250	13.301397	40.507446	2.741446	4.882659	-33.284618	2.199888	-9.270585	-26.645472	0.000000	0.000000	0.000000	5.818256	14.815421	-19.125360	-4.601607	-12.920596	39.071949	-1.923357	-10.547139	-31.770235	-0.058840	-1.565198	4.305469	-2.899920	0.569950	-6.382030	-1.122450	1.060690	2.068610	0.578152	0.435925	5.706861	-4.619950	1.298240	-2.661040	1.080440	1.675580	15.800199	1.176140	0.498429	5.137429	-4.619950	0.000000	0.000000	-77.376259	-7.046880	27.849409	28.762964	-39.809193	-10.608627	0.000000	0.000000	10.894694	51.275139	-29.567200	-31.606953	-7.125019	0.000000	0.000000	11.190043	-11.520893	-13.430696	-4.619950	0.000000	0.000000	85.814781	1.056635	29.968151	-27.340227	38.501713	-9.710183	0.000000	0.000003	1.252057	-43.052555	-30.182060	25.158705	7.125019	0.000000	0.000000	-17.493876	-67.734138	9.677674
	17.712601	16.050699	1.045150	163.475052	-88.272972	-157.829056	0.000000	0.000000	0.000000	-10.129267	-7.731131	-22.718920	4.923141	13.296716	40.489582	2.726190	4.964100	-33.236702	2.239725	-9.348512	-26.891710	0.000000	0.000000	0.000000	5.964944	15.128733	-18.852882	-4.608731	-12.929144	39.103802	-1.932501	-11.053548	-32.183342	-0.036020	-1.225057	3.368271	-2.870879	0.583280	-6.426250	-1.152020	1.079090	2.065140	0.533684	0.446246	5.728940	-4.550730	1.304900	-2.731030	1.017910	1.694900	15.777802	1.146700	0.509558	5.143090	-4.550730	0.000000	-0.000000	-77.390335	-7.094942	27.765882	28.891294	-39.923916	-10.690884	0.000000	0.000003	11.119994	51.181362	-29.656439	-31.591320	-7.125019	0.000000	0.000000	11.112851	-11.575139	-13.342975	-4.550730	0.000000	-0.000000	85.885078	1.301028	29.594807	-27.141541	38.313839	-9.586749	0.000000	0.000000	3.017673	-41.329750	-30.610538	24.123404	7.125019	0.000000	0.000000	-14.625474	-67.681297	8.043858
	17.712700	16.046801	1.009370	163.411179	-88.408119	-157.840210	0.000000	0.000000	0.000000	-9.963581	-7.807037	-22.601217	4.912785	13.284902	40.444538	2.704452	5.064734	-33.161400	2.290471	-9.446568	-27.202486	0.000000	0.000000	0.000000	6.179651	15.159132	-18.704765	-4.623463	-12.946786	39.169590	-1.936122	-11.298520	-32.380566	-0.019427	-0.899839	2.473263	-2.741870	0.580385	-6.437171	-1.150890	1.065010	2.075090	0.461198	0.443748	5.748020	-4.489451	1.314140	-2.789980	0.935644	1.720980	15.723799	1.112490	0.523047	5.137170	-4.489450	0.000000	0.000000	-77.450523	-7.142035	27.620657	28.991564	-40.013184	-10.755292	0.000000	0.000000	11.335591	51.041500	-29.778494	-31.559029	-7.125019	0.000000	0.000000	11.001276	-11.643038	-13.214528	-4.489450	0.000000	0.000000	85.924171	1.559272	29.485056	-26.956488	38.137672	-9.472246	0.000000	0.000000	4.024669	-40.309177	-30.520878	23.307842	7.125019	0.000000	0.000000	-12.980147	-67.263702	7.002830
